<?xml version="1.0" encoding="utf-8"?>
<!-- Generator: Adobe Illustrator 16.0.4, SVG Export Plug-In . SVG Version: 6.00 Build 0)  -->
<!DOCTYPE svg PUBLIC "-//W3C//DTD SVG 1.1//EN" "http://www.w3.org/Graphics/SVG/1.1/DTD/svg11.dtd">
<svg version="1.1" id="Layer_1" xmlns="http://www.w3.org/2000/svg" xmlns:xlink="http://www.w3.org/1999/xlink" x="0px" y="0px"
	 width="28px" height="28px" viewBox="0 0 28 28" enable-background="new 0 0 28 28" xml:space="preserve">
<circle fill="#3A3A39" cx="14" cy="14" r="14"/>
<path fill="#FFFFFF" d="M17.9,11.315l-3.449,3.45V5.753h-0.966v9.012l-3.45-3.45l-0.683,0.683l4.274,4.274l0.019-0.009
	c0.043,0.041,0.081,0.089,0.138,0.113c0.06,0.024,0.122,0.036,0.185,0.036c0.125,0,0.249-0.049,0.341-0.141l4.273-4.274L17.9,11.315
	z"/>
<path fill="#FFFFFF" d="M21.374,20.887H6.563c-0.267,0-0.483-0.216-0.483-0.482v-4.957h0.966v4.474h13.845v-4.474h0.965v4.957
	C21.856,20.671,21.641,20.887,21.374,20.887z"/>
</svg>
